<?xml version="1.0" encoding="UTF-8"?>
<svg version="1.1" xmlns="http://www.w3.org/2000/svg" width="512" height="512">
<path d="M0 0 C0.91555664 0.16097168 1.83111328 0.32194336 2.77441406 0.48779297 C51.73505426 9.29056092 100.48126029 33.7456812 135 70 C135.78375 70.78375 136.5675 71.5675 137.375 72.375 C138.24125 73.24125 139.1075 74.1075 140 75 C140.95132813 75.89912109 140.95132813 75.89912109 141.921875 76.81640625 C148.69567157 83.33798699 154.38733342 90.48431818 160 98 C160.4837207 98.64469238 160.96744141 99.28938477 161.46582031 99.95361328 C177.98046406 122.14209999 190.71958031 146.55495599 199.29052734 172.83740234 C199.88692932 174.65534065 200.5123862 176.46371076 201.14453125 178.26953125 C203.5623187 185.46509788 205.10607792 192.82348068 206.625 200.25 C206.9346167 201.74889771 206.9346167 201.74889771 207.25048828 203.27807617 C210.33280887 218.91878745 211.35039635 234.18383411 211.31567383 250.09960938 C211.31252556 253.10063476 211.33603409 256.10065872 211.36132812 259.1015625 C211.53097479 310.98375515 194.26780511 362.59728329 163 404 C162.58363281 404.55913086 162.16726563 405.11826172 161.73828125 405.69433594 C156.84088202 412.2681526 151.75623313 418.5917248 146.19140625 424.62109375 C144.75941156 426.17561205 143.34928107 427.75063738 141.96484375 429.34765625 C118.72755746 456.05967693 87.70647255 476.97331382 54.95751953 490.20605469 C53.61320834 490.75129041 52.27320498 491.30723217 50.93701172 491.87207031 C34.26449518 498.91373388 34.26449518 498.91373388 26 497 C22.10965121 494.99588093 19.52411744 492.09418781 18 488 C17.8062908 485.32833051 17.71961781 482.76004924 17.72875977 480.08886719 C17.72091965 478.89759216 17.72091965 478.89759216 17.71292114 477.68225098 C17.70268714 475.9580762 17.69690178 474.23387058 17.69503975 472.50966644 C17.6913649 469.7660043 17.6746012 467.0227001 17.65428162 464.27911377 C17.59902155 456.47813646 17.56841298 448.67710392 17.54370117 440.87597656 C17.52766012 436.09904879 17.49725758 431.32236848 17.45893669 426.54557037 C17.44741508 424.73903317 17.44135748 422.93245132 17.44125557 421.12587738 C17.44020479 407.43913601 17.33308463 392.84398249 10.6875 380.5 C10.08164062 379.37335938 9.47578125 378.24671875 8.8515625 377.0859375 C6.49644292 373.16073819 3.96022228 369.49154423 1 366 C2.65508979 364.34491021 4.76594268 364.4966522 7.0390625 364.16796875 C8.61155762 363.93315796 8.61155762 363.93315796 10.21582031 363.69360352 C11.34084961 363.52658936 12.46587891 363.3595752 13.625 363.1875 C44.12672483 358.46227518 76.2844023 347.31420407 95.4375 321.5625 C114.92486367 292.50622906 121.6902542 252.20083466 115 218 C111.92848002 203.24254342 105.91800037 189.2788945 95.875 177.9375 C92.03044327 173.45664904 92.03044327 173.45664904 91.75 169.25 C92.13066367 167.82323768 92.55431261 166.4078062 93 165 C97.55699806 145.45348546 96.7081865 127.115549 89.76953125 108.22265625 C89 106 89 106 89 104 C66.16360899 102.0199661 39.70503522 115.6658226 22.0390625 129.28515625 C15.80417833 131.47094898 6.51754367 127.92715211 0.21289062 126.54882812 C-14.67965075 123.43783656 -29.45460191 122.62313438 -44.625 122.6875 C-45.49852112 122.68899048 -46.37204224 122.69048096 -47.27203369 122.6920166 C-65.3399832 122.74728414 -82.71191975 124.26399458 -100.24755859 128.81738281 C-105.9127262 130.23740805 -109.7055609 130.25350147 -114.8671875 127.43359375 C-115.85976562 126.77488281 -116.85234375 126.11617187 -117.875 125.4375 C-128.18455916 118.83417726 -139.05564769 113.61487087 -150.4375 109.125 C-151.15832764 108.83874756 -151.87915527 108.55249512 -152.62182617 108.25756836 C-159.09493201 105.7824479 -165.89006795 103.72587875 -172.875 103.6875 C-173.95394531 103.66236328 -173.95394531 103.66236328 -175.0546875 103.63671875 C-177.60903552 104.11373555 -178.33903575 105.02691196 -180 107 C-180.83757237 108.97044718 -180.83757237 108.97044718 -181.3515625 111.16796875 C-181.56296875 111.97943359 -181.774375 112.79089844 -181.9921875 113.62695312 C-182.30542969 114.89442383 -182.30542969 114.89442383 -182.625 116.1875 C-182.8415625 117.01314453 -183.058125 117.83878906 -183.28125 118.68945312 C-187.4026705 134.83168341 -187.3157976 151.39039488 -182.26171875 167.328125 C-181.75 169.25 -181.75 169.25 -182 173 C-183.99721716 175.95318852 -186.22549231 178.55943867 -188.5859375 181.23046875 C-204.87587398 199.91908519 -208.21407604 227.66716312 -206.703125 251.47265625 C-205.77888898 263.59828931 -204.22092731 275.26420444 -201 287 C-200.65195313 288.26972656 -200.30390625 289.53945313 -199.9453125 290.84765625 C-195.86934772 304.21400973 -189.45126549 317.59083598 -180 328 C-179.38640625 328.68191406 -178.7728125 329.36382812 -178.140625 330.06640625 C-157.5749983 351.74257679 -127.5449797 360.20570598 -98.86425781 364.01245117 C-93.20351794 364.79648206 -93.20351794 364.79648206 -91 367 C-91.44730469 367.46148437 -91.89460937 367.92296875 -92.35546875 368.3984375 C-98.00562878 374.49434576 -102.34725647 380.68700098 -103.73828125 389.01953125 C-105.61057692 399.94395861 -105.61057692 399.94395861 -109.71875 403.06640625 C-113.1408672 404.43117918 -116.38638184 405.29263627 -120 406 C-121.48113281 406.35384766 -121.48113281 406.35384766 -122.9921875 406.71484375 C-137.983579 409.82281516 -151.51890958 408.62756714 -164.75 400.8125 C-172.72129871 395.39566611 -177.76573615 388.47227249 -182.9375 380.5 C-190.43144178 368.97711867 -199.82237173 359.6200261 -213.28515625 355.45703125 C-219.44878622 354.41941297 -225.77440515 354.7937533 -232 355 C-231.7525 356.27875 -231.505 357.5575 -231.25 358.875 C-231.04117188 359.95394531 -231.04117188 359.95394531 -230.828125 361.0546875 C-229.71269009 363.67490723 -228.58440285 363.86904764 -226 365 C-218.80569685 369.89090849 -212.2080455 374.96457011 -207 382 C-206.47535156 382.70511719 -205.95070313 383.41023438 -205.41015625 384.13671875 C-200.37429737 391.49499726 -196.78577871 399.54785688 -193.17089844 407.67602539 C-187.73360734 419.54984485 -180.16439177 427.01386212 -168.1171875 432.25390625 C-149.02404158 439.15289631 -127.89104395 437.74089205 -108 436 C-107.8983509 443.2773034 -107.82842968 450.55442282 -107.78027344 457.83227539 C-107.76019229 460.30662885 -107.73292177 462.78093505 -107.69824219 465.25512695 C-107.64957222 468.81733888 -107.62699546 472.37892181 -107.609375 475.94140625 C-107.58872986 477.04271378 -107.56808472 478.1440213 -107.54681396 479.27870178 C-107.54494178 485.72673281 -107.99690132 489.83540549 -112 495 C-116.34577684 498.1895055 -121.86338293 497.49225914 -127 497 C-130.47827474 496.16566613 -133.70020205 494.93243154 -137 493.5625 C-138.35013184 493.02278564 -138.35013184 493.02278564 -139.72753906 492.47216797 C-160.60842318 483.99182291 -179.98506558 473.56069239 -198 460 C-198.55719727 459.5870166 -199.11439453 459.1740332 -199.68847656 458.74853516 C-252.22578746 419.67107134 -288.75348044 359.43185493 -298.85888672 294.73999023 C-300.7234926 281.8253777 -301.44611116 269.16028719 -301.33618164 256.11816406 C-301.31233819 253.10454899 -301.31569084 250.09181245 -301.32226562 247.078125 C-301.30053894 231.35915221 -299.92839201 216.23855041 -296.8125 200.8125 C-296.60036865 199.76078613 -296.3882373 198.70907227 -296.16967773 197.62548828 C-292.79716709 181.6099675 -287.59409747 165.97693862 -281 151 C-280.68869141 150.2884375 -280.37738281 149.576875 -280.05664062 148.84375 C-269.10351304 124.09857976 -254.29374838 101.67061034 -236.31201172 81.47949219 C-235.11195087 80.12624159 -233.93184267 78.7553645 -232.75390625 77.3828125 C-229.13341633 73.19066627 -225.39238646 69.41969282 -221.15625 65.8515625 C-219.6427705 64.55194424 -218.16604132 63.20888166 -216.71875 61.8359375 C-203.03285048 48.8681253 -187.31352289 38.36071851 -171 29 C-170.36143066 28.63181152 -169.72286133 28.26362305 -169.06494141 27.88427734 C-144.70265224 13.98400671 -117.54377759 4.91700026 -90 0 C-88.68201416 -0.24556641 -88.68201416 -0.24556641 -87.33740234 -0.49609375 C-59.35277714 -5.50981154 -27.92282505 -5.18213874 0 0 Z " fill="#EFF5FB" transform="translate(301,9)"/>
</svg>
